<?xml version="1.0" encoding="UTF-8"?><svg id="Layer_2" xmlns="http://www.w3.org/2000/svg" viewBox="0 0 179.58 197.87"><defs><style>.cls-1{fill:#fff;}.cls-2{fill:#fcb327;}.cls-3{fill:none;}.cls-4{fill:#74adde;}</style></defs><g id="Layer_1-2"><g><rect class="cls-3" width="179.58" height="197.87"/><g><polygon class="cls-4" points="143.66 64.97 143.66 49.55 48.11 145.1 48.11 161.96 143.66 161.96 143.66 145.7 62.94 145.7 76.87 131.76 76.87 131.76 143.66 64.97"/><polygon class="cls-2" points="36.34 132.48 47.1 143.24 143.24 47.1 132.06 35.92 35.92 35.92 35.92 52.18 116.64 52.18 102.71 66.11 102.7 66.11 36.34 132.48"/><polygon class="cls-2" points="142.23 143.66 132.06 133.5 78.01 133.5 67.85 143.66 142.23 143.66"/><polygon class="cls-4" points="37.35 54.21 47.52 64.38 101.57 64.38 111.73 54.21 37.35 54.21"/><polygon class="cls-2" points="35.92 134.94 35.92 150.36 46.08 160.52 46.08 145.1 35.92 134.94"/><path class="cls-1" d="M102.7,66.11h0"/></g></g></g></svg>